<svg version="1.1" xmlns="http://www.w3.org/2000/svg" width="549" height="549">
<path d="M0 0 C181.17 0 362.34 0 549 0 C549 181.17 549 362.34 549 549 C367.83 549 186.66 549 0 549 C0 367.83 0 186.66 0 0 Z " fill="#E2E6E5" transform="translate(0,0)"/>
<path d="M0 0 C73.43442413 -0.20165675 73.43442413 -0.20165675 104.19335938 -0.24414062 C111.23266661 -0.25392857 118.27197328 -0.26403058 125.3112793 -0.2746582 C126.19342533 -0.27597695 127.07557136 -0.27729569 127.98444909 -0.2786544 C142.18775094 -0.30034434 156.3909506 -0.33973184 170.59419205 -0.38576398 C185.19291728 -0.43267989 199.79158936 -0.46032722 214.39038688 -0.47044247 C223.38371877 -0.47727042 232.37676181 -0.4987596 241.37000469 -0.53958233 C247.55427762 -0.56620807 253.73840332 -0.57395667 259.92272928 -0.56750689 C263.47987141 -0.56433444 267.03651231 -0.56886193 270.59356308 -0.59602737 C302.00258335 -0.82359119 328.75105689 4.78132461 351.75 27.375 C356.8263736 32.51330757 361.24757343 37.80206061 365 44 C365.51949219 44.84820312 366.03898437 45.69640625 366.57421875 46.5703125 C370.70707853 53.71172764 373.53215477 61.14140064 376 69 C376.32226562 69.99257812 376.64453125 70.98515625 376.9765625 72.0078125 C381.3066849 87.50722257 379.80416179 104.55225891 376 120 C375.70996094 121.32451172 375.70996094 121.32451172 375.4140625 122.67578125 C372.51847497 134.16411877 365.7081278 145.14385316 358 154 C357.31164062 154.81984375 356.62328125 155.6396875 355.9140625 156.484375 C347.59671505 166.11498784 338.1139499 172.85997427 327.0625 179.0625 C325.93787354 179.70243896 324.81324707 180.34237793 323.65454102 181.00170898 C320.11105198 183.01553308 316.55705871 185.01026339 313 187 C311.8665918 187.63421875 310.73318359 188.2684375 309.56542969 188.921875 C303.93982114 192.06325895 298.30638284 195.19025957 292.66796875 198.30859375 C274.3802999 208.42285405 256.18573043 218.7039438 238 229 C226.18057447 235.69170094 214.35371243 242.36918066 202.5 249 C185.98040381 258.24032819 185.98040381 258.24032819 169.51220703 267.57177734 C167.23190447 268.86815927 164.94305488 270.14792954 162.65234375 271.42578125 C145.45950467 281.16846102 130.98383501 295.59401452 125.09928894 314.96499634 C122.69887685 325.32751163 122.52437094 335.36889006 122.48828125 345.9609375 C122.47139744 347.84666076 122.45324235 349.73237303 122.43388367 351.61807251 C122.38677905 356.53337158 122.35671568 361.44862605 122.33044434 366.36407471 C122.30043715 371.39905606 122.25397715 376.43388421 122.20898438 381.46875 C122.12340226 391.3124192 122.05585867 401.15612033 122 411 C130.43468082 410.9849075 138.868648 410.94236987 147.30299282 410.86790943 C151.2224943 410.83410301 155.14162534 410.8086038 159.0612793 410.80444336 C193.03825554 410.75582012 229.06786209 407.73941346 255 383 C274.24233358 362.61428139 280.86841202 337.51410772 280.28515625 310.04296875 C279.47597304 288.27627886 271.75520509 263.75520509 256 248 C253.18022236 245.73116942 250.31314924 243.62787859 247.3203125 241.59375 C245 240 245 240 243 238 C251.66822478 237.88295006 260.336168 237.79471017 269.00501728 237.74093914 C273.03252344 237.71510137 277.05947998 237.68019221 281.08666992 237.62280273 C313.37468793 237.17511347 339.95687873 241.26019845 364.125 264.625 C381.32115398 281.87921173 388.27412515 303.8487902 388.3190918 327.75439453 C388.16471228 342.11069401 385.33624151 355.06737803 379 368 C378.57074219 368.8971875 378.14148438 369.794375 377.69921875 370.71875 C365.31879168 394.99136195 343.94815528 411.51597688 318.44921875 420.2265625 C307.43476333 423.70481158 296.69017988 424.14911873 285.18051147 424.12025452 C283.9224002 424.12110894 282.66428893 424.12196337 281.36805308 424.12284368 C277.90175328 424.125065 274.43548475 424.12109997 270.96918893 424.11606562 C267.22154513 424.11172714 263.47390293 424.11320995 259.72625732 424.1139679 C253.24174968 424.11449098 246.75725214 424.11136669 240.27274704 424.10573006 C230.89736495 424.09758586 221.52198771 424.09499685 212.14660247 424.09374207 C196.93383247 424.09155613 181.72106786 424.08490848 166.50830078 424.07543945 C151.73486355 424.06625347 136.96142779 424.05917844 122.18798828 424.05493164 C121.27659487 424.05466892 120.36520146 424.05440619 119.42619006 424.05413551 C114.85377061 424.05283042 110.28135115 424.05156673 105.70893168 424.05032361 C67.80595066 424.03996527 29.90297575 424.02235943 -8 424 C-8.11669784 410.31586783 -8.20511866 396.63185723 -8.25906086 382.94732571 C-8.28497192 376.59059808 -8.32002589 370.23421498 -8.37719727 363.87768555 C-8.43218416 357.72436786 -8.46155886 351.57137806 -8.47438622 345.41783333 C-8.48350796 343.08948682 -8.50131362 340.76115487 -8.52865028 338.43295097 C-8.70676896 322.60980726 -6.9932606 308.31018136 -3 293 C-2.60614143 291.41984542 -2.21324672 289.83945016 -1.82148743 288.2587738 C6.97284758 252.81392121 33.91041883 220.675559 64.61328125 201.84887695 C75.90483913 195.05390736 87.39755702 188.59052227 98.8515625 182.07421875 C105.58379761 178.24390586 112.29449711 174.37693095 119 170.5 C128.09076208 165.24718961 137.19519499 160.01904822 146.3125 154.8125 C146.90415955 154.47461456 147.49581909 154.13672913 148.10540771 153.78860474 C153.02087016 150.98180273 157.93724459 148.17659992 162.85400391 145.37207031 C173.10546053 139.52428941 183.34286764 133.65325167 193.5625 127.75 C202.20600004 122.75740638 210.85957519 117.783042 219.52713013 112.83236694 C221.30147211 111.81879952 223.07544113 110.80458177 224.84936523 109.7902832 C230.25212112 106.70242086 235.65992078 103.62409361 241.08203125 100.5703125 C263.76514789 88.17321397 263.76514789 88.17321397 278.0859375 67.3046875 C279.16209619 63.41395991 279.34381704 59.7550019 279.3125 55.75 C279.30686035 54.99783203 279.3012207 54.24566406 279.29541016 53.47070312 C279.04579651 41.9934181 275.13148752 33.96362063 267.6875 25.3125 C253.67997129 13.25951018 239.18379459 13.55339199 221.52441406 13.56762695 C219.25665761 13.55859968 216.98890602 13.54827011 214.72116089 13.53674316 C208.59395469 13.50926059 202.46684131 13.49990051 196.33958149 13.49388909 C189.92538619 13.48448266 183.51125959 13.45827743 177.09710693 13.43388367 C166.34078522 13.39522553 155.58449347 13.36684672 144.828125 13.34643555 C133.75453017 13.32539401 122.68097984 13.29805753 111.60742188 13.26245117 C110.91661215 13.26023766 110.22580242 13.25802415 109.51405907 13.25574356 C103.50395475 13.23643157 97.49385201 13.21664628 91.48374939 13.19681454 C65.65585667 13.11220167 39.82799497 13.05864484 14 13 C14 74.05 14 135.1 14 198 C9.38 198 4.76 198 0 198 C0 132.66 0 67.32 0 0 Z " fill="#231F20" transform="translate(102,56)"/>
<path d="M0 0 C22.77 0 45.54 0 69 0 C69 0.33 69 0.66 69 1 C49.53 1.33 30.06 1.66 10 2 C10.99 2.99 11.98 3.98 13 5 C12.01 5.99 11.02 6.98 10 8 C8.70684939 7.04367001 7.41553147 6.08486149 6.125 5.125 C5.40570313 4.59132813 4.68640625 4.05765625 3.9453125 3.5078125 C2 2 2 2 0 0 Z " fill="#3A3839" transform="translate(345,294)"/>
<path d="M0 0 C0.33 0.66 0.66 1.32 1 2 C-0.60413056 4.4484098 -1.81800315 5.8946334 -4.375 7.375 C-6.81404897 8.88488746 -7.94655492 9.99462817 -9.6875 12.1875 C-10.8321875 13.5796875 -10.8321875 13.5796875 -12 15 C-12.66 15 -13.32 15 -14 15 C-14.20625 15.53625 -14.4125 16.0725 -14.625 16.625 C-16.57996944 20.0017654 -19.18223695 22.30474839 -22 25 C-22.66 24.67 -23.32 24.34 -24 24 C-16.74443731 15.3577086 -8.8970485 6.97336234 0 0 Z " fill="#2C2A2B" transform="translate(153,267)"/>
<path d="M0 0 C1.32 0.33 2.64 0.66 4 1 C0.50640535 4.59634744 -3.11098131 7.83451967 -7 11 C-7 10.01 -7 9.02 -7 8 C-6.01 7.67 -5.02 7.34 -4 7 C-2.79117904 4.99983534 -2.79117904 4.99983534 -2 3 C-1.34 3 -0.68 3 0 3 C0 2.01 0 1.02 0 0 Z " fill="#312F2F" transform="translate(249,333)"/>
<path d="M0 0 C6.52307692 0.61538462 6.52307692 0.61538462 8.9375 2.5625 C9.288125 3.036875 9.63875 3.51125 10 4 C9.01 4.99 8.02 5.98 7 7 C5.83040013 6.02433888 4.66438823 5.044375 3.5 4.0625 C2.8503125 3.51722656 2.200625 2.97195313 1.53125 2.41015625 C1.0259375 1.94480469 0.520625 1.47945313 0 1 C0 0.67 0 0.34 0 0 Z " fill="#2E2E2E" transform="translate(348,295)"/>
<path d="M0 0 C0.33 0.99 0.66 1.98 1 3 C-3.455 5.97 -3.455 5.97 -8 9 C-8.33 8.01 -8.66 7.02 -9 6 C-6.03 4.02 -3.06 2.04 0 0 Z " fill="#2A2829" transform="translate(165,259)"/>
<path d="M0 0 C0 4.27840261 -2.28404432 5.82034457 -5 9 C-5.33 9.99 -5.66 10.98 -6 12 C-7.32 11.01 -8.64 10.02 -10 9 C-6.7 6.03 -3.4 3.06 0 0 Z " fill="#373637" transform="translate(373,136)"/>
<path d="M0 0 C0.99 0.33 1.98 0.66 3 1 C1.71700242 3.86207152 0.469364 6.0245088 -2 8 C-2.99 8 -3.98 8 -5 8 C-4.34 6.35 -3.68 4.7 -3 3 C-1.68 3 -0.36 3 1 3 C0.67 2.01 0.34 1.02 0 0 Z " fill="#D9DAD9" transform="translate(356,435)"/>
<path d="M0 0 C0.99 0.33 1.98 0.66 3 1 C2.09515208 2.15518918 1.1755794 3.29885406 0.25 4.4375 C-0.26046875 5.07558594 -0.7709375 5.71367187 -1.296875 6.37109375 C-3.19667629 8.18810554 -4.43586908 8.60423197 -7 9 C-6.02180976 7.68677212 -5.0424189 6.37443848 -4.0625 5.0625 C-3.51722656 4.33160156 -2.97195313 3.60070312 -2.41015625 2.84765625 C-1 1 -1 1 0 0 Z " fill="#D5D6D5" transform="translate(459,210)"/>
<path d="M0 0 C0.66 0.33 1.32 0.66 2 1 C-0.23407889 4.35111834 -1.26215824 5.81553956 -5.25 6.8125 C-6.61125 6.9053125 -6.61125 6.9053125 -8 7 C-5.4837822 4.39391727 -2.94865641 2.10618315 0 0 Z " fill="#D5D5D5" transform="translate(454,457)"/>
<path d="M0 0 C0 3 0 3 -1.125 4.6875 C-3.76459098 6.53521368 -5.85804073 6.20946395 -9 6 C-6.45543849 3.03134491 -3.51005335 1.6380249 0 0 Z " fill="#D3D4D3" transform="translate(353,277)"/>
<path d="M0 0 C0.33 0.66 0.66 1.32 1 2 C-1.35380297 5.92300495 -3.64464931 6.83857315 -8 8 C-5.33333333 5.33333333 -2.66666667 2.66666667 0 0 Z " fill="#333132" transform="translate(153,267)"/>
<path d="M0 0 C0.66 0.33 1.32 0.66 2 1 C1.25 2.9375 1.25 2.9375 0 5 C-2.125 5.75 -2.125 5.75 -4 6 C-4.33 5.01 -4.66 4.02 -5 3 C-2.625 1.4375 -2.625 1.4375 0 0 Z " fill="#2A292A" transform="translate(171,255)"/>
<path d="M0 0 C0.66 0.33 1.32 0.66 2 1 C1.67 2.32 1.34 3.64 1 5 C-1.97 4.505 -1.97 4.505 -5 4 C-3.35 2.68 -1.7 1.36 0 0 Z " fill="#2B292A" transform="translate(211,232)"/>
<path d="M0 0 C1.32 0.66 2.64 1.32 4 2 C3.67 2.99 3.34 3.98 3 5 C1.35 4.67 -0.3 4.34 -2 4 C-1.34 2.68 -0.68 1.36 0 0 Z " fill="#D9DBDB" transform="translate(240,346)"/>
<path d="M0 0 C0.33 0 0.66 0 1 0 C1.3125 2.3125 1.3125 2.3125 1 5 C-1.5 6.8125 -1.5 6.8125 -4 8 C-2.87548273 5.0280615 -1.77706209 2.66559313 0 0 Z " fill="#C7C7C7" transform="translate(469,196)"/>
</svg>
